<svg width="20" height="20" viewBox="0 0 20 20" fill="none" xmlns="http://www.w3.org/2000/svg">
<g clip-path="url(#clip0_12_1913)">
<g clip-path="url(#clip1_12_1913)">
<path d="M19.725 17.8417L14.2833 12.4C15.3113 11.0648 15.8681 9.42674 15.8666 7.74167C15.8703 5.99861 15.2844 4.30553 14.2042 2.93758C13.1239 1.56964 11.6128 0.607239 9.91631 0.206803C8.21987 -0.193634 6.43787 -0.00857123 4.85991 0.731913C3.28196 1.4724 2.00081 2.72478 1.22468 4.28551C0.448557 5.84624 0.223077 7.62359 0.584887 9.32868C0.946698 11.0338 1.87453 12.5664 3.21759 13.6775C4.56066 14.7885 6.24 15.4127 7.98269 15.4486C9.72538 15.4844 11.429 14.9299 12.8166 13.875L18.2583 19.3167C18.4544 19.5081 18.7176 19.6152 18.9916 19.6152C19.2657 19.6152 19.5288 19.5081 19.725 19.3167C19.822 19.2199 19.8989 19.105 19.9514 18.9784C20.004 18.8519 20.031 18.7162 20.031 18.5792C20.031 18.4422 20.004 18.3065 19.9514 18.1799C19.8989 18.0534 19.822 17.9384 19.725 17.8417ZM2.53328 7.74167C2.53328 6.62915 2.86318 5.54161 3.48127 4.61658C4.09935 3.69156 4.97786 2.97059 6.00569 2.54484C7.03352 2.1191 8.16452 2.00771 9.25567 2.22475C10.3468 2.44179 11.3491 2.97752 12.1358 3.76419C12.9224 4.55086 13.4582 5.55314 13.6752 6.64428C13.8922 7.73543 13.7808 8.86643 13.3551 9.89426C12.9294 10.9221 12.2084 11.8006 11.2834 12.4187C10.3583 13.0368 9.2708 13.3667 8.15828 13.3667C6.66712 13.3645 5.23766 12.7711 4.18324 11.7167C3.12883 10.6623 2.53549 9.23283 2.53328 7.74167Z" fill="#DFDEDC"/>
</g>
</g>
<defs>
<clipPath id="clip0_12_1913">
<rect width="20" height="20" fill="white"/>
</clipPath>
<clipPath id="clip1_12_1913">
<rect width="20" height="20" fill="white"/>
</clipPath>
</defs>
</svg>
